<?xml version="1.0" standalone="no"?>
<!DOCTYPE svg PUBLIC "-//W3C//DTD SVG 20010904//EN"
 "http://www.w3.org/TR/2001/REC-SVG-20010904/DTD/svg10.dtd">
<svg version="1.0" xmlns="http://www.w3.org/2000/svg"
 width="156.000000pt" height="156.000000pt" viewBox="0 0 156.000000 156.000000"
 preserveAspectRatio="xMidYMid meet">
<metadata>
Created by potrace 1.15, written by Peter Selinger 2001-2017
</metadata>
<g transform="translate(0.000000,156.000000) scale(0.100000,-0.100000)"
fill="#000000" stroke="none">
<path d="M450 1500 c0 -47 3 -60 15 -60 10 0 15 -10 15 -30 0 -20 5 -30 15
-30 12 0 15 -15 15 -75 0 -60 -3 -75 -15 -75 -13 0 -15 -22 -15 -135 l0 -135
-30 0 c-20 0 -30 5 -30 15 0 8 -7 15 -15 15 -8 0 -15 7 -15 15 0 8 -7 15 -15
15 -8 0 -15 7 -15 15 0 8 -7 15 -15 15 -8 0 -15 7 -15 15 0 8 -7 15 -15 15 -8
0 -15 7 -15 15 0 10 -10 15 -30 15 l-30 0 0 -60 c0 -47 3 -60 15 -60 8 0 15
-7 15 -15 0 -8 7 -15 15 -15 10 0 15 -10 15 -30 0 -27 -3 -30 -30 -30 -20 0
-30 -5 -30 -15 0 -11 -12 -15 -45 -15 -33 0 -45 -4 -45 -15 0 -10 -10 -15 -30
-15 -20 0 -30 -5 -30 -15 0 -8 -7 -15 -15 -15 -8 0 -15 -7 -15 -15 0 -8 7 -15
15 -15 8 0 15 -7 15 -15 0 -12 13 -15 60 -15 47 0 60 -3 60 -15 0 -8 7 -15 15
-15 8 0 15 -7 15 -15 0 -8 -7 -15 -15 -15 -8 0 -15 -7 -15 -15 0 -8 -7 -15
-15 -15 -11 0 -15 -12 -15 -45 0 -33 4 -45 15 -45 8 0 15 -7 15 -15 0 -11 12
-15 45 -15 l45 0 0 -165 c0 -140 -2 -165 -15 -165 -11 0 -15 -12 -15 -45 0
-33 -4 -45 -15 -45 -11 0 -15 -12 -15 -45 0 -33 -4 -45 -15 -45 -8 0 -15 -7
-15 -15 0 -13 77 -15 630 -15 553 0 630 2 630 15 0 8 -7 15 -15 15 -8 0 -15 7
-15 15 0 10 -10 15 -30 15 -20 0 -30 5 -30 15 0 8 -7 15 -15 15 -10 0 -15 10
-15 30 0 20 -5 30 -15 30 -10 0 -15 10 -15 30 0 20 -5 30 -15 30 -13 0 -15 25
-15 165 l0 165 30 0 c20 0 30 5 30 15 0 8 7 15 15 15 11 0 15 12 15 45 0 33
-4 45 -15 45 -8 0 -15 7 -15 15 0 8 -7 15 -15 15 -10 0 -15 10 -15 30 l0 30
75 0 c60 0 75 3 75 15 0 8 7 15 15 15 8 0 15 7 15 15 0 8 -7 15 -15 15 -8 0
-15 7 -15 15 0 10 -10 15 -30 15 -20 0 -30 5 -30 15 0 11 -12 15 -45 15 -33 0
-45 4 -45 15 0 8 -7 15 -15 15 -10 0 -15 10 -15 30 0 20 5 30 15 30 8 0 15 7
15 15 0 8 7 15 15 15 12 0 15 13 15 60 l0 60 -30 0 c-20 0 -30 -5 -30 -15 0
-8 -7 -15 -15 -15 -8 0 -15 -7 -15 -15 0 -8 -7 -15 -15 -15 -8 0 -15 -7 -15
-15 0 -8 -7 -15 -15 -15 -8 0 -15 -7 -15 -15 0 -8 -7 -15 -15 -15 -8 0 -15 -7
-15 -15 0 -10 -10 -15 -30 -15 -20 0 -30 -5 -30 -15 0 -10 -10 -15 -30 -15
l-30 0 0 150 c0 127 -2 150 -15 150 -11 0 -15 12 -15 45 0 33 -4 45 -15 45 -8
0 -15 7 -15 15 0 8 -7 15 -15 15 -8 0 -15 7 -15 15 0 8 -7 15 -15 15 -8 0 -15
7 -15 15 0 10 -10 15 -30 15 -20 0 -30 5 -30 15 0 13 -22 15 -135 15 -113 0
-135 2 -135 15 0 8 -7 15 -15 15 -8 0 -15 7 -15 15 0 8 -7 15 -15 15 -8 0 -15
7 -15 15 0 8 -7 15 -15 15 -8 0 -15 7 -15 15 0 10 -10 15 -30 15 l-30 0 0 -60z"/>
</g>
</svg>
